<?xml version="1.0" encoding="UTF-8" standalone="no"?>
<!-- Created with Inkscape (http://www.inkscape.org/) -->

<svg
   width="200mm"
   height="200mm"
   viewBox="0 0 200 200"
   version="1.1"
   id="svg5"
   inkscape:export-filename="weather-main-icon.svg"
   inkscape:export-xdpi="96"
   inkscape:export-ydpi="96"
   sodipodi:docname="weather-main-icon.svg"
   inkscape:version="1.2.2 (b0a8486541, 2022-12-01, custom)"
   xmlns:inkscape="http://www.inkscape.org/namespaces/inkscape"
   xmlns:sodipodi="http://sodipodi.sourceforge.net/DTD/sodipodi-0.dtd"
   xmlns="http://www.w3.org/2000/svg"
   xmlns:svg="http://www.w3.org/2000/svg">
  <sodipodi:namedview
     id="namedview7"
     pagecolor="#000000"
     bordercolor="#000000"
     borderopacity="0.25"
     inkscape:showpageshadow="2"
     inkscape:pageopacity="0"
     inkscape:pagecheckerboard="0"
     inkscape:deskcolor="#d1d1d1"
     inkscape:document-units="mm"
     showgrid="false"
     inkscape:zoom="0.5"
     inkscape:cx="-336"
     inkscape:cy="490"
     inkscape:window-width="1920"
     inkscape:window-height="1003"
     inkscape:window-x="1920"
     inkscape:window-y="0"
     inkscape:window-maximized="1"
     inkscape:current-layer="layer1" />
  <defs
     id="defs2">
    <inkscape:path-effect
       effect="spiro"
       id="path-effect30002"
       is_visible="true"
       lpeversion="1" />
    <inkscape:path-effect
       effect="spiro"
       id="path-effect29991"
       is_visible="true"
       lpeversion="1" />
  </defs>
  <g
     inkscape:label="Layer 1"
     inkscape:groupmode="layer"
     id="layer1">
    <path
       style="fill:none;fill-opacity:1;stroke:#eca400;stroke-width:10;stroke-linecap:round;stroke-linejoin:round;stroke-miterlimit:13.6;stroke-dasharray:none;stroke-opacity:1;paint-order:normal"
       d="m 21.578,55.642 12,8.718"
       id="path18202"
       sodipodi:nodetypes="cc" />
    <path
       style="fill:none;fill-opacity:1;stroke:#eca400;stroke-width:10;stroke-linecap:round;stroke-linejoin:round;stroke-miterlimit:13.6;stroke-dasharray:none;stroke-opacity:1;paint-order:normal"
       d="m 21.578,126.827 12,-8.718"
       id="path18202-5"
       sodipodi:nodetypes="cc" />
    <path
       style="fill:none;fill-opacity:1;stroke:#eca400;stroke-width:10;stroke-linecap:round;stroke-linejoin:round;stroke-miterlimit:13.6;stroke-dasharray:none;stroke-opacity:1;paint-order:normal"
       d="m 51.928,33.8 4.65,14.3127"
       id="path19016"
       sodipodi:nodetypes="cc" />
    <path
       style="fill:none;fill-opacity:1;stroke:#eca400;stroke-width:10;stroke-linecap:round;stroke-linejoin:round;stroke-miterlimit:13.6;stroke-dasharray:none;stroke-opacity:1;paint-order:normal"
       d="m 25.578,91.234147 h -15"
       id="path19020"
       sodipodi:nodetypes="cc" />
    <path
       style="fill:none;fill-opacity:1;stroke:#eca400;stroke-width:10;stroke-linecap:round;stroke-linejoin:round;stroke-miterlimit:13.6;stroke-dasharray:none;stroke-opacity:1;paint-order:normal"
       d="m 83.077618,48.113 4.65,-14.313"
       id="path19022"
       sodipodi:nodetypes="cc" />
    <path
       style="fill:none;fill-opacity:1;stroke:#eca400;stroke-width:15;stroke-linecap:round;stroke-linejoin:round;stroke-miterlimit:13.6;stroke-dasharray:none;stroke-opacity:1;paint-order:normal"
       d="m 53.02219,111.02541 c -4.345818,-3.87435 -7.349712,-9.22642 -8.393194,-14.954234 -1.043481,-5.727817 -0.11999,-11.795366 2.580332,-16.953369 2.700323,-5.158003 7.160496,-9.374026 12.462192,-11.780009 5.301696,-2.405983 11.411577,-2.986798 17.071648,-1.622857 4.123777,0.993731 7.999494,3.000662 11.190926,5.794907"
       id="path30000"
       inkscape:path-effect="#path-effect30002"
       inkscape:original-d="M 53.02219,111.02541 C 64.230508,97.436867 65.535379,79.209609 76.743168,65.714941 c 11.20779,-13.494668 10.119099,4.859983 11.190926,5.794907"
       sodipodi:nodetypes="csc" />
    <path
       style="fill:none;fill-opacity:1;stroke:#fefcfb;stroke-width:15;stroke-linecap:round;stroke-linejoin:round;stroke-miterlimit:13.6;stroke-dasharray:none;stroke-opacity:1;paint-order:normal"
       d="m 77.66513,143.07597 c -2.158637,0.0767 -4.328483,-0.16968 -6.414935,-0.72854 -5.445461,-1.45857 -10.266518,-5.12049 -13.132497,-9.97504 -2.865979,-4.85455 -3.743257,-10.84476 -2.389694,-16.31727 1.353564,-5.4725 4.922088,-10.3631 9.720615,-13.32192 4.798527,-2.958813 10.770762,-3.951139 16.268289,-2.70308 -1.363466,-7.788495 0.245302,-16.060114 4.428558,-22.769814 4.183255,-6.709699 10.902226,-11.795291 18.495744,-13.999432 7.59351,-2.204142 15.99119,-1.506405 23.11682,1.920706 7.12563,3.42711 12.91317,9.551829 15.93173,16.859906 1.80037,4.35877 2.63497,9.113401 2.42673,13.824753 6.4501,-1.397484 13.46143,0.0332 18.84834,3.846062 5.38691,3.812859 9.0672,9.949729 9.89361,16.497529 0.8264,6.54781 -1.21368,13.40665 -5.48429,18.4384 -4.27062,5.03175 -10.70661,8.15965 -17.30166,8.40861 -0.59943,0.0226 -1.1997,0.0227 -1.79913,8e-5"
       id="path29989"
       inkscape:path-effect="#path-effect29991"
       inkscape:original-d="m 77.66513,143.07597 c -1.662164,10.39773 -0.921589,6.91602 -6.414935,-0.72854 -5.493344,-7.64457 16.082805,-34.1696 10.466713,-42.31731 21.440372,-1.850639 40.559982,-16.660007 61.972852,-17.988634 21.41286,-1.328629 2.83461,9.820875 2.42673,13.824753 0,0 3.74816,59.902491 5.956,47.190601 1.8726,-10.7818 -23.9289,12.12953 -1.79913,8e-5"
       sodipodi:nodetypes="cscscsc" />
    <path
       style="fill:#fefcfb;fill-opacity:1;stroke:#fefcfb;stroke-width:15;stroke-linecap:round;stroke-linejoin:round;stroke-miterlimit:13.6;stroke-dasharray:none;stroke-opacity:1;paint-order:normal"
       d="m 77.162374,143.07697 72.850106,-0.003"
       id="path356"
       sodipodi:nodetypes="cc" />
  </g>
</svg>
